<?xml version="1.0" encoding="utf-8"?>
<!-- Generator: Adobe Illustrator 21.0.0, SVG Export Plug-In . SVG Version: 6.00 Build 0)  -->
<svg version="1.1" id="图层_1" xmlns="http://www.w3.org/2000/svg" xmlns:xlink="http://www.w3.org/1999/xlink" x="0px" y="0px"
	 viewBox="0 0 148 40.3" style="enable-background:new 0 0 148 40.3;" xml:space="preserve">
<style type="text/css">
	.st0{fill:#2990D0;}
	.st1{fill:#1D50A2;}
	.st2{fill:#444444;}
	.st3{fill:#666666;}
</style>
<title>LabVision logo-04</title>
<desc>Created with Sketch.</desc>
<g>
	<path class="st0" d="M17.9,5.2l-6,11.1c-0.3,0.6-0.1,1.3,0.5,1.6c0.2,0.1,0.4,0.1,0.5,0.1l0,0l7-12.8H17.9z"/>
	<path class="st0" d="M21.5,25h-9.3c-2.1,0-4-1.3-4.8-3.4l-0.2-0.7L8.3,22c1,0.9,2.3,1.4,3.6,1.4h10.5c0.6,0,1.2-0.1,1.8-0.3l0,0
		l-0.4,0.6C23.3,24.5,22.4,25,21.5,25z"/>
	<path class="st1" d="M20.8,26.4h-8.5c-1.4,0-2.7-0.5-3.8-1.4l-0.4-0.3L8.1,25c0.6,2.2,2.6,3.7,4.9,3.7h8.3c3.1,0,5.9-2,6.9-5
		l1.3-5.5c0-0.1,0-0.3-0.1-0.4c-0.1-0.1-0.3-0.1-0.4,0c-2.2,1.1-4.5,1.8-7,1.9h-9.8c-0.8,0-1.5-0.3-2-1C9.7,18,9.7,17,10.1,16.3
		l6.1-11.1h-2.6l-5.5,10c-0.8,1.5-0.7,3.2,0.2,4.6c0.9,1.4,2.4,2.2,4.1,2.1h9.7c1.7,0,3.3-0.3,4.8-1l-0.5,1.4
		C25.5,24.8,23.3,26.4,20.8,26.4z"/>
	<path class="st1" d="M31.4,0.2h-5.2l0.3,0.2c0.6,0.4,1,1.2,0.8,2l-0.1,0.3h4.6c0.9,0.2,1.5,0.9,1.6,1.8v10.7
		c0,6.9-3.1,13.3-8.5,17.6L20,36.6c-1,0.8-2.5,0.8-3.6,0l-4.8-3.9c-5.4-4.3-8.5-10.7-8.5-17.6V4.7c0-1.1,0.9-2,2-2h16.3
		c0.5,0,1,0.4,1,1c0,0.2,0,0.3-0.1,0.5l-7.6,14h1.7c0.6,0,1.2-0.3,1.5-0.9l6.9-12.7c0.8-1.4,0.2-3.2-1.2-4c-0.4-0.2-0.9-0.4-1.5-0.4
		h-4.8l0,0H5.1c-2.4,0-4.4,2-4.4,4.4v10.4c0,7.6,3.5,14.8,9.4,19.5l5.2,4.1c1.7,1.4,4.1,1.4,5.9,0l5.2-4.1
		c5.9-4.7,9.4-11.9,9.4-19.5V4.7C35.8,2.2,33.8,0.2,31.4,0.2z"/>
	<path class="st2" d="M45,16.9h8.4v2.4H42V1.4h3L45,16.9z"/>
	<path class="st2" d="M63.6,19.3c-0.1-0.3-0.2-0.7-0.3-1c-0.1-0.3-0.1-0.7-0.1-1c-0.4,0.6-1,1.2-1.6,1.6c-0.7,0.4-1.5,0.6-2.3,0.6
		c-1.2,0.1-2.3-0.3-3.2-1.1c-0.8-0.8-1.2-1.8-1.1-2.9c-0.1-1.2,0.5-2.3,1.5-3c1.3-0.8,2.8-1.2,4.3-1.1h2.3v-1.2
		c0-0.6-0.2-1.2-0.6-1.6C62.1,8.2,61.4,8,60.8,8c-0.6,0-1.2,0.1-1.6,0.5c-0.4,0.3-0.6,0.8-0.6,1.3h-2.9V9.7c0-1.1,0.5-2.2,1.4-2.8
		c1.1-0.9,2.5-1.3,3.9-1.2c1.4-0.1,2.7,0.4,3.8,1.2c1,0.8,1.6,2.1,1.5,3.4v5.9c0,0.5,0,1.1,0.1,1.6c0.1,0.5,0.2,1,0.4,1.5L63.6,19.3
		z M59.9,17.1c0.7,0,1.4-0.2,2-0.6c0.5-0.3,0.9-0.7,1.2-1.3v-2h-2.4c-0.7,0-1.5,0.2-2.1,0.6c-0.5,0.4-0.7,0.9-0.7,1.5
		c0,0.5,0.2,0.9,0.5,1.2C58.9,17,59.4,17.2,59.9,17.1z"/>
	<path class="st2" d="M80.2,13.1c0.1,1.7-0.4,3.3-1.4,4.7C78,19,76.5,19.6,75,19.5c-0.8,0-1.5-0.2-2.2-0.5c-0.6-0.4-1.2-0.9-1.5-1.5
		L71,19.3h-2.5V0.1h3v7.4c0.4-0.5,0.9-1,1.5-1.3c0.6-0.3,1.3-0.5,2-0.5c1.5-0.1,3,0.7,3.9,1.9c1,1.5,1.5,3.3,1.4,5.1L80.2,13.1z
		 M77.2,12.8c0.1-1.2-0.2-2.3-0.7-3.4c-0.4-0.8-1.3-1.3-2.3-1.3c-0.6,0-1.2,0.1-1.7,0.4c-0.5,0.3-0.8,0.7-1.1,1.2v5.6
		c0.2,0.5,0.6,0.9,1.1,1.2c0.5,0.3,1.1,0.5,1.7,0.4c0.9,0.1,1.7-0.4,2.2-1.1c0.5-0.9,0.7-1.9,0.7-3L77.2,12.8z"/>
	<path class="st2" d="M87.1,14.4l0.3,1.3h0.1l0.3-1.3L92,1.4h3.2l-6.4,17.9H86L79.6,1.4h3.2L87.1,14.4z"/>
	<path class="st2" d="M100.1,2.7h-3V0.1h3V2.7z M100.1,19.3h-3V6h3V19.3z"/>
	<path class="st2" d="M110.5,15.6c0-0.5-0.2-0.9-0.6-1.1c-0.7-0.4-1.4-0.7-2.2-0.8c-1.3-0.2-2.5-0.7-3.6-1.4
		c-0.8-0.6-1.3-1.5-1.2-2.5c0-1.1,0.5-2.2,1.4-2.9c1.1-0.8,2.4-1.3,3.7-1.2c1.4-0.1,2.8,0.4,3.9,1.2c0.9,0.7,1.4,1.8,1.4,3V10h-2.9
		c0-0.5-0.2-1-0.6-1.4c-0.5-0.4-1.1-0.6-1.7-0.6c-0.6,0-1.2,0.1-1.6,0.5c-0.4,0.3-0.6,0.7-0.6,1.2c0,0.4,0.2,0.8,0.5,1.1
		c0.7,0.4,1.4,0.6,2.2,0.7c1.3,0.2,2.6,0.7,3.7,1.4c0.8,0.6,1.3,1.6,1.2,2.6c0,1.2-0.5,2.3-1.5,2.9c-1.1,0.8-2.5,1.2-3.9,1.1
		c-1.5,0.1-2.9-0.4-4.1-1.3c-0.9-0.7-1.5-1.9-1.4-3.1v-0.1h2.8c0,0.7,0.3,1.3,0.8,1.7c0.6,0.4,1.2,0.6,1.9,0.5
		c0.6,0,1.2-0.1,1.8-0.5C110.3,16.6,110.6,16.2,110.5,15.6z"/>
	<path class="st2" d="M119,2.7h-3V0.1h3V2.7z M119,19.3h-3V6h3V19.3z"/>
	<path class="st2" d="M121.4,12.5c-0.1-1.8,0.5-3.5,1.6-4.9c2.4-2.5,6.3-2.6,8.8-0.2c0.1,0.1,0.1,0.1,0.2,0.2
		c1.1,1.4,1.7,3.1,1.6,4.9v0.3c0.1,1.8-0.5,3.5-1.6,4.9c-2.4,2.5-6.4,2.5-8.8,0.1c0,0-0.1-0.1-0.1-0.1c-1.1-1.4-1.7-3.1-1.6-4.9
		L121.4,12.5z M124.4,12.8c-0.1,1.1,0.2,2.2,0.8,3.2c0.9,1.3,2.7,1.6,4,0.7c0.3-0.2,0.5-0.4,0.7-0.7c0.6-1,0.8-2.1,0.8-3.2v-0.3
		c0-1.1-0.2-2.2-0.8-3.1c-0.5-0.8-1.4-1.3-2.4-1.2c-0.9-0.1-1.8,0.4-2.3,1.2c-0.5,1-0.8,2-0.8,3.1L124.4,12.8z"/>
	<path class="st2" d="M138.5,6l0.2,1.9c0.4-0.7,1-1.2,1.6-1.6c0.7-0.4,1.5-0.6,2.2-0.6c1.2-0.1,2.4,0.4,3.2,1.3
		c0.8,0.9,1.2,2.2,1.2,4v8.3h-3V11c0.1-0.8-0.1-1.6-0.6-2.2c-0.5-0.5-1.1-0.7-1.8-0.7c-0.6,0-1.1,0.1-1.7,0.4
		c-0.5,0.2-0.8,0.6-1.1,1v9.8h-3V6H138.5z"/>
	<path class="st3" d="M112.9,33.7h-1.3v1.4h2.9c0.7,0,1.2-0.5,1.2-1.2v-7.4h-12V28h1.9v8.9h-2v1.5h12.1v-1.5h-7.4V28h4.8v5.5
		C113.2,33.6,113.1,33.7,112.9,33.7L112.9,33.7z"/>
	<polygon class="st3" points="147.2,29.2 147.2,27.8 142.4,27.8 142.4,26.4 139.5,26.4 139.5,27.8 135,27.8 135,29.2 139.5,29.2 
		139.5,36.9 135.6,36.9 135.6,38.4 146.6,38.4 146.6,36.9 142.4,36.9 142.4,29.2 	"/>
	<path class="st3" d="M47.4,38.5h-2.7l0.1-1.4h0.9c0.2,0,0.3-0.1,0.3-0.3l0,0V26.4h2.7v10.8C48.6,37.9,48,38.5,47.4,38.5L47.4,38.5z
		"/>
	<polygon class="st3" points="41.4,27 40.6,37.7 43.3,37.7 44.1,27 	"/>
	<polygon class="st3" points="52.9,27 53.7,37.7 51.1,37.7 50.2,27 	"/>
	<polygon class="st3" points="79.7,26.5 79.7,26.2 77.3,26.2 77.3,26.5 72.5,26.5 72.5,28 77.3,28 77.3,38.5 79.7,38.5 79.7,28 
		84.5,28 84.5,26.5 	"/>
	<polygon class="st3" points="72,38.4 74.8,38.4 76.4,33 73.6,33 	"/>
	<polygon class="st3" points="85,38.4 82.1,38.4 80.5,33 83.4,33 	"/>
	<path class="st3" d="M83.9,28.7h-2.6l-0.8,1.9c-0.3,0.4-0.2,1,0.2,1.2C80.8,32,81,32,81.2,32h3.5v-1.5H83L83.9,28.7z"/>
	<path class="st3" d="M73.2,28.7h2.6l0.8,1.9c0.3,0.4,0.2,1-0.2,1.2C76.3,32,76.1,32,75.9,32h-3.5v-1.5h1.7L73.2,28.7z"/>
</g>
</svg>
